<svg width="25" height="24" viewBox="0 0 25 24" fill="none" xmlns="http://www.w3.org/2000/svg">
<path fill-rule="evenodd" clip-rule="evenodd" d="M9.03101 1C6.02352 1 3.69659 3.63591 4.06962 6.62017L5.78861 20.3721C5.97627 21.8734 7.25248 23 8.76545 23H16.2343C17.7473 23 19.0235 21.8734 19.2112 20.3721L20.9301 6.62017C21.3032 3.63591 18.9762 1 15.9688 1H9.03101ZM6.20136 5C6.61054 3.8455 7.71163 3 9.03101 3H15.9688C17.2881 3 18.3892 3.8455 18.7984 5H6.20136ZM6.13266 7L7.77317 20.124C7.83572 20.6245 8.26112 21 8.76545 21H16.2343C16.7386 21 17.164 20.6245 17.2266 20.124L18.8671 7H6.13266Z" fill="#0E3C73"/>
<path d="M15.5018 10.998C15.1113 10.6075 14.4782 10.6075 14.0876 10.998L12.4999 12.5858L10.92 11.0058C10.5294 10.6153 9.89628 10.6153 9.50575 11.0058C9.11523 11.3964 9.11523 12.0295 9.50575 12.4201L11.0857 14L9.49989 15.5858C9.10937 15.9763 9.10937 16.6095 9.49989 17C9.89042 17.3905 10.5236 17.3905 10.9141 17L12.4999 15.4142L14.0876 17.0019C14.4782 17.3925 15.1113 17.3925 15.5018 17.0019C15.8924 16.6114 15.8924 15.9782 15.5018 15.5877L13.9141 14L15.5018 12.4123C15.8924 12.0217 15.8924 11.3886 15.5018 10.998Z" fill="#0E3C73"/>
</svg>
