<svg width="23" height="22" viewBox="0 0 23 22" fill="none" xmlns="http://www.w3.org/2000/svg">
<path d="M15.5 0C17.1569 0 18.5 1.34315 18.5 3C18.5 3.55228 18.0523 4 17.5 4C16.9477 4 16.5 3.55228 16.5 3C16.5 2.44772 16.0523 2 15.5 2H3.5C2.94772 2 2.5 2.44772 2.5 3V19C2.5 19.5523 2.94772 20 3.5 20H15.5C16.0523 20 16.5 19.5523 16.5 19V18C16.5 17.4477 16.9477 17 17.5 17C18.0523 17 18.5 17.4477 18.5 18V19C18.5 20.6569 17.1569 22 15.5 22H3.5C1.84315 22 0.5 20.6569 0.5 19V3C0.5 1.34315 1.84315 0 3.5 0H15.5Z" fill="#0E3C73"/>
<path fill-rule="evenodd" clip-rule="evenodd" d="M20.2991 7.20087C19.9993 6.90104 19.5132 6.90104 19.2133 7.20087L11.4166 14.9977C11.2692 15.145 11.1715 15.3348 11.1373 15.5404L10.9728 16.5272L11.9596 16.3627C12.1652 16.3285 12.355 16.2308 12.5023 16.0835L20.2991 8.28666C20.599 7.98682 20.599 7.5007 20.2991 7.20087ZM17.7991 5.78666C18.88 4.70578 20.6325 4.70577 21.7134 5.78665C22.7942 6.86754 22.7942 8.61999 21.7134 9.70087L13.9166 17.4977C13.4744 17.9398 12.9052 18.2327 12.2884 18.3355L11.3016 18.5C9.94795 18.7256 8.7744 17.5521 9.00001 16.1984L9.16448 15.2116C9.26728 14.5948 9.56021 14.0256 10.0023 13.5834L17.7991 5.78666Z" fill="#0E3C73"/>
<path d="M4.5 6C4.5 5.44772 4.94772 5 5.5 5H13.5C14.0523 5 14.5 5.44772 14.5 6C14.5 6.55228 14.0523 7 13.5 7H5.5C4.94772 7 4.5 6.55228 4.5 6Z" fill="#0E3C73"/>
<path d="M4.5 10C4.5 9.44772 4.94772 9 5.5 9H9.5C10.0523 9 10.5 9.44772 10.5 10C10.5 10.5523 10.0523 11 9.5 11H5.5C4.94772 11 4.5 10.5523 4.5 10Z" fill="#0E3C73"/>
<path d="M4.5 14C4.5 13.4477 4.94772 13 5.5 13H6.5C7.05228 13 7.5 13.4477 7.5 14C7.5 14.5523 7.05228 15 6.5 15H5.5C4.94772 15 4.5 14.5523 4.5 14Z" fill="#0E3C73"/>
</svg>
