<svg width="22" height="22" viewBox="0 0 22 22" fill="none" xmlns="http://www.w3.org/2000/svg">
<path d="M2 4.67541V2C2 1.44772 1.55228 1 1 1C0.447715 1 0 1.44772 0 2V6C0 7.10457 0.895431 8 2 8H6C6.55229 8 7 7.55229 7 7C7 6.44772 6.55229 6 6 6H3.52186C3.54218 5.97505 3.56157 5.94914 3.57995 5.92229C4.621 4.40094 6.11009 3.22911 7.85191 2.57803C9.90743 1.80968 12.173 1.8196 14.2217 2.6059C16.2704 3.3922 17.9608 4.90061 18.9745 6.8469C19.9881 8.79319 20.2549 11.043 19.7247 13.1724C19.1945 15.3018 17.9039 17.1638 16.0959 18.4075C14.288 19.6513 12.0876 20.1909 9.90942 19.9247C7.73119 19.6586 5.72551 18.605 4.27028 16.9625C3.03713 15.5706 2.27139 13.8374 2.06527 12.0055C2.00352 11.4566 1.55674 11.0079 1.00446 11.0084C0.452173 11.0088 -0.00433159 11.4579 0.0462573 12.0078C0.259944 14.3309 1.2082 16.5356 2.76666 18.2946C4.54703 20.3041 7.00084 21.5931 9.66574 21.9188C12.3306 22.2444 15.0226 21.5842 17.2345 20.0626C19.4464 18.541 21.0254 16.263 21.6741 13.6578C22.3228 11.0526 21.9963 8.30013 20.7562 5.91897C19.5161 3.53782 17.448 1.69239 14.9415 0.730407C12.4351 -0.231581 9.66332 -0.243709 7.14853 0.696306C5.06062 1.47676 3.26953 2.86881 2 4.67541Z" fill="#0E3C73"/>
<path d="M11 4C10.4477 4 10 4.44771 10 5V11.4667C10 11.4667 10 11.7274 10.1267 11.9235C10.2115 12.0898 10.3437 12.2344 10.5174 12.3346L15.1372 15.0019C15.6155 15.278 16.2271 15.1141 16.5032 14.6358C16.7793 14.1575 16.6155 13.546 16.1372 13.2698L12 10.8812V5C12 4.44772 11.5523 4 11 4Z" fill="#0E3C73"/>
</svg>
