<svg width="25" height="24" viewBox="0 0 25 24" fill="none" xmlns="http://www.w3.org/2000/svg">
<path fill-rule="evenodd" clip-rule="evenodd" d="M21.3477 1.87868C20.1761 0.707109 18.2766 0.707105 17.105 1.87868L2.94744 16.0363C2.52864 16.4551 2.24317 16.9885 2.12702 17.5692L1.53995 20.5046C1.26006 21.904 2.4939 23.1379 3.89334 22.858L6.82868 22.2709C7.40945 22.1548 7.94285 21.8693 8.36165 21.4505L22.5192 7.29289C23.6908 6.12132 23.6908 4.22183 22.5192 3.05025L21.3477 1.87868ZM18.5192 3.29289C18.9098 2.90237 19.5429 2.90237 19.9335 3.29289L21.105 4.46447C21.4956 4.85499 21.4956 5.48815 21.105 5.87868L18.4334 8.55027L15.8477 5.96448L18.5192 3.29289ZM14.4334 7.3787L4.36165 17.4505C4.22205 17.5901 4.1269 17.7679 4.08818 17.9615L3.50111 20.8968L6.43645 20.3097C6.63004 20.271 6.80784 20.1759 6.94744 20.0363L17.0192 9.96448L14.4334 7.3787Z" fill="#0E3C73"/>
</svg>
