<svg width="24" height="24" viewBox="0 0 24 24" fill="none" xmlns="http://www.w3.org/2000/svg">
<path fill-rule="evenodd" clip-rule="evenodd" d="M4.87164 1.58811C4.18318 1.9184 4.34287 2.75714 4.79283 3.20711L9.08573 7.5L7.49994 9.08579L3.20705 4.79289C2.75705 4.3429 1.90938 4.19971 1.58413 4.87995C0.985543 6.1319 0.769268 7.54124 0.975518 8.9287C1.23107 10.6478 2.11702 12.2104 3.46099 13.3124C4.80496 14.4144 6.51083 14.977 8.2467 14.8908C8.89041 14.8588 9.52118 14.7385 10.1227 14.537L17.8786 22.2929C19.0502 23.4645 20.9497 23.4645 22.1213 22.2929L22.2928 22.1213C23.4644 20.9497 23.4644 19.0503 22.2928 17.8787L14.537 10.1228C14.7394 9.51835 14.86 8.8844 14.8913 8.2375C14.9752 6.50151 14.4103 4.79638 13.3066 3.45387C12.2028 2.11135 10.639 1.22746 8.91958 0.974169C7.53185 0.769745 6.1228 0.987876 4.87164 1.58811ZM12.0944 10.5087C12.5355 9.7995 12.793 8.98448 12.8339 8.13802C12.8932 6.91285 12.4945 5.70946 11.7155 4.76198C10.9365 3.8145 9.83291 3.19069 8.6194 3.01193C8.2121 2.95193 7.80219 2.94351 7.39877 2.98462L10.4999 6.08579C11.281 6.86684 11.281 8.13317 10.4999 8.91421L8.91415 10.5C8.13311 11.281 6.86678 11.281 6.08573 10.5L2.98461 7.39888C2.9433 7.8044 2.95203 8.21647 3.01289 8.62584C3.19324 9.8391 3.8185 10.9419 4.76701 11.7196C5.71551 12.4974 6.91943 12.8944 8.14452 12.8336C8.98961 12.7916 9.80308 12.5338 10.5109 12.093L11.9945 13.5766L11.9923 13.5782L19.2928 20.8787C19.6834 21.2692 20.3165 21.2692 20.707 20.8787L20.8786 20.7071C21.2691 20.3166 21.2691 19.6834 20.8786 19.2929L12.0944 10.5087Z" fill="#0E3C73"/>
</svg>
